   <svg
                      xmlns="http://www.w3.org/2000/svg"
                      xmlns:xlink="http://www.w3.org/1999/xlink"
                      version="1.1"
                      id="Layer_1"
                      x="0px"
                      y="0px"
                      viewBox="0 0 167.73 64.17"
                      style="enable-background: new 0 0 167.73 64.17"
                      xml:space="preserve"
                    >
                      <style type="text/css">
                        .st0 {
                          fill: #fff;
                        }
                        .st1 {
                          fill: #efc02c;
                        }
                      </style>
                      <path
                        class="st0"
                        d="M35.21,42.09c-1.21,7.07-8,12.85-15.07,12.85H0l4.43-9.43h17.14c2,0,3.86-1.64,4.21-3.57l4.5-25.71H18.5  l4.5-9.5h18.5L35.21,42.09z"
                      />
                      <path
                        class="st0"
                        d="M73.44,54.94H49.21c-5.21,0-8.71-4.21-7.78-9.43l4-22.71c0.93-5.28,5.86-9.5,11.07-9.5h15.76  c5.28,0,8.78,4.21,7.85,9.5l-2.86,16.07H54.12l1.73-9.5h13.62l0.79-4.71c0.21-1.07-0.43-1.86-1.5-1.86H56.78  c-1.07,0-2.07,0.79-2.29,1.86l-3.29,18.92c-0.21,1.07,0.5,1.93,1.57,1.93h15.96L73.44,54.94z"
                      />
                      <path
                        class="st0"
                        d="M110.45,45.52l-7.9,9.43h-11.2c-5.21,0-8.71-4.21-7.78-9.43l7.36-41.63h9.43l-1.71,9.43h11.58l4.79,9.5H97  l-3.64,20.78c-0.21,1.07,0.5,1.93,1.57,1.93H110.45z"
                      />
                      <path
                        class="st1"
                        d="M141.04,56.2l-7.62-15.23l-19.56,23.2h-11.89l27.14-32.03L117.26,8h11.35l7.64,15.57L156.38,0h11.35  l-27.31,31.9l11.97,24.3H141.04z"
                      />
                    </svg>